<?xml version="1.0" standalone="no"?>
<!DOCTYPE svg PUBLIC "-//W3C//DTD SVG 20010904//EN"
 "http://www.w3.org/TR/2001/REC-SVG-20010904/DTD/svg10.dtd">
<svg version="1.0" xmlns="http://www.w3.org/2000/svg"
 width="1570.935196pt" height="364.000000pt" viewBox="0 0 1570.935196 364.000000"
 preserveAspectRatio="xMidYMid meet">
<metadata>
Created by potrace 1.12, written by Peter Selinger 2001-2015
</metadata>
<g transform="translate(-39.000000,367.000000) scale(0.100000,-0.100000)"
fill="#FF6A00" stroke="none">
<path d="M6165 3638 c-3 -18 -4 -121 -2 -228 3 -158 8 -210 25 -271 55 -205
185 -357 329 -387 l38 -8 -68 -32 c-196 -91 -419 -277 -559 -466 -167 -225
-246 -437 -253 -681 -6 -197 23 -332 105 -498 166 -332 459 -554 835 -633 112
-23 379 -24 497 -1 283 56 627 241 877 473 l63 58 20 -24 c98 -126 140 -156
204 -144 19 3 47 18 63 33 26 24 71 123 71 157 0 31 -32 90 -96 176 l-66 88
35 87 c48 120 56 154 53 226 -5 115 -99 246 -203 281 -89 30 -206 12 -265 -41
-9 -8 -21 -13 -26 -12 -6 2 -162 204 -348 449 -186 245 -391 515 -456 600
-100 130 -118 159 -113 180 29 112 22 192 -26 289 -60 120 -182 217 -356 280
-87 32 -294 81 -341 81 -27 0 -32 -4 -37 -32z m927 -1135 c571 -750 628 -826
622 -832 -8 -8 5 -24 -487 602 -241 306 -435 561 -432 567 3 5 12 10 19 10 8
0 133 -156 278 -347z m-43 -264 l301 -380 -27 -52 c-52 -102 -25 -222 72 -326
59 -63 113 -85 194 -79 52 4 70 11 128 51 38 25 103 78 145 117 108 99 168
120 244 84 78 -37 93 -102 49 -213 -105 -270 -322 -484 -678 -671 -224 -118
-393 -162 -617 -161 -400 1 -762 200 -928 511 -55 101 -78 174 -97 307 -16
108 -16 116 4 231 11 65 32 150 46 188 97 259 324 507 600 655 60 33 245 116
262 119 1 0 137 -171 302 -381z m464 -590 c20 -25 37 -49 37 -52 0 -13 -61 16
-75 36 -15 22 -22 89 -7 72 5 -6 25 -31 45 -56z"/>
<path d="M6068 2063 c-34 -35 -90 -156 -118 -254 -29 -98 -36 -304 -15 -402
31 -144 124 -320 227 -434 96 -104 307 -243 370 -243 32 0 53 24 65 76 14 57
-6 88 -82 126 -261 133 -396 309 -435 569 -13 90 4 217 44 322 13 34 34 90 47
125 l24 62 -20 38 c-27 50 -68 56 -107 15z"/>
<path d="M7649 1397 c-74 -36 -139 -129 -139 -198 0 -72 90 -187 148 -191 73
-4 137 18 174 58 34 38 68 128 68 180 0 41 -6 59 -30 92 -16 23 -41 49 -55 58
-36 24 -119 24 -166 1z m130 -137 c20 0 6 -61 -20 -82 -21 -18 -82 -24 -113
-12 -22 8 -20 47 3 68 24 21 70 36 96 31 11 -3 26 -5 34 -5z"/>
<path d="M415 3165 l-25 -24 0 -1531 0 -1531 25 -24 24 -25 2471 0 2471 0 24
25 25 24 0 1531 0 1531 -25 24 -24 25 -2471 0 -2471 0 -24 -25z m4855 -1555
l0 -1420 -2360 0 -2360 0 0 1420 0 1420 2360 0 2360 0 0 -1420z"/>
<path d="M2275 2574 c-228 -50 -413 -222 -456 -424 -14 -68 -6 -219 16 -285
53 -157 146 -245 466 -440 213 -131 322 -208 361 -257 62 -79 87 -220 58 -328
-50 -184 -263 -273 -565 -235 -64 8 -207 56 -284 95 -33 16 -63 30 -66 30 -3
0 -5 -47 -5 -105 l0 -105 39 -20 c22 -11 79 -31 128 -45 469 -137 868 14 957
361 23 88 21 226 -4 306 -48 157 -162 270 -425 423 -126 73 -296 186 -356 237
-147 124 -161 367 -29 499 56 56 103 81 190 104 132 34 365 8 547 -62 11 -4
13 12 11 97 l-3 102 -59 19 c-32 10 -77 21 -100 25 -23 3 -50 8 -61 11 -59 13
-294 12 -360 -3z"/>
<path d="M1303 2553 l-103 -4 0 -1054 0 -1055 105 0 105 0 0 1060 c0 583 -1
1059 -2 1058 -2 -1 -49 -4 -105 -5z"/>
<path d="M3098 2554 c-4 -4 231 -663 663 -1862 l91 -252 77 0 76 0 400 1046
c220 575 402 1053 404 1061 3 14 -9 15 -99 10 -57 -4 -104 -8 -105 -9 -2 -2
-150 -390 -330 -863 -180 -473 -330 -865 -334 -871 -3 -7 -148 383 -321 865
l-314 876 -102 2 c-56 1 -104 0 -106 -3z"/>
<path d="M7255 2873 c-36 -5 -85 -49 -85 -76 0 -32 49 -106 73 -111 12 -3 51
-7 87 -10 70 -6 205 -38 242 -57 79 -42 113 -86 134 -177 17 -72 -1 -142 -63
-240 -18 -29 -33 -57 -33 -63 0 -5 22 -32 50 -60 40 -40 53 -48 68 -40 23 12
105 170 126 240 60 206 -68 465 -266 539 -95 36 -268 64 -333 55z"/>
<path d="M9169 2326 c-2 -2 -28 -7 -58 -11 -93 -12 -203 -45 -301 -91 -105
-50 -144 -81 -160 -129 -10 -29 -7 -116 5 -134 15 -25 52 -16 161 41 140 73
230 104 341 119 151 20 304 -8 390 -71 51 -38 98 -107 118 -174 21 -69 37
-262 28 -316 l-9 -45 -209 -1 c-206 -1 -255 -4 -365 -25 -311 -60 -506 -227
-539 -465 -51 -358 180 -603 569 -605 200 -2 362 64 524 212 l56 51 0 -111 c0
-129 1 -131 102 -131 108 0 98 -72 99 710 0 584 -2 696 -16 760 -43 206 -172
338 -390 395 -54 15 -335 31 -346 21z m518 -1010 c0 0 3 -93 5 -205 l3 -203
-82 -78 c-141 -134 -243 -190 -379 -208 -128 -17 -278 28 -341 103 -15 16 -38
55 -52 85 -35 76 -36 200 -2 277 59 132 206 209 441 232 72 6 397 4 407 -3z"/>
<path d="M10934 2310 c-128 -33 -240 -102 -374 -229 -36 -33 -66 -61 -67 -61
-2 0 -3 58 -3 129 0 104 -3 131 -16 142 -21 17 -166 18 -188 0 -14 -12 -16
-98 -16 -922 l0 -909 26 -10 c14 -6 58 -10 98 -10 123 0 111 -73 114 679 l2
650 102 106 c150 158 247 222 375 248 62 13 82 13 143 1 173 -33 275 -145 320
-352 18 -80 19 -137 20 -692 0 -705 -12 -640 117 -640 126 0 113 -77 113 663
-1 679 -3 721 -49 851 -29 81 -65 141 -124 203 -106 113 -225 162 -407 168
-90 3 -130 0 -186 -15z"/>
<path d="M13885 2314 c-158 -28 -370 -116 -421 -177 -22 -26 -25 -37 -22 -100
2 -57 7 -72 24 -83 18 -12 34 -7 155 55 205 103 358 136 524 112 160 -24 262
-100 307 -229 20 -59 23 -86 23 -222 l0 -155 -205 -1 c-234 -1 -298 -7 -429
-40 -253 -64 -416 -200 -466 -389 -22 -86 -20 -237 5 -318 60 -195 237 -326
465 -343 39 -3 75 -7 81 -9 6 -2 47 1 91 6 158 18 307 87 428 201 l65 60 0
-105 c0 -98 2 -107 22 -121 32 -23 139 -22 168 2 l21 17 -4 695 c-4 774 -3
757 -74 892 -63 121 -182 207 -339 244 -91 22 -314 26 -419 8z m523 -994 l72
0 0 -208 0 -209 -77 -74 c-116 -112 -201 -166 -310 -194 -84 -23 -185 -21
-267 5 -90 28 -173 106 -200 188 -26 78 -19 210 14 275 62 124 218 200 430
214 52 3 97 8 100 10 3 3 41 3 85 -1 44 -3 113 -6 153 -6z"/>
<path d="M15400 2315 c-164 -32 -293 -115 -368 -236 -74 -121 -87 -310 -29
-440 63 -143 196 -238 492 -352 196 -75 303 -147 347 -231 32 -59 31 -182 -1
-248 -61 -126 -236 -200 -435 -185 -112 9 -283 71 -377 138 -49 35 -76 40
-100 20 -19 -15 -22 -28 -22 -93 -1 -90 12 -115 81 -159 171 -108 504 -144
721 -77 199 61 324 182 376 362 13 43 16 86 13 165 -3 96 -6 113 -36 173 -63
128 -181 212 -447 318 -207 83 -274 118 -337 181 -45 45 -60 68 -73 114 -31
105 -3 208 76 279 135 121 393 117 609 -10 90 -52 113 -46 125 37 10 69 -8
121 -53 152 -47 33 -116 62 -195 83 -79 21 -280 26 -367 9z"/>
<path d="M11751 2294 c-13 -9 -17 -23 -15 -42 3 -24 596 -1631 647 -1753 21
-50 55 -62 171 -57 68 2 100 7 110 18 23 23 666 1758 666 1796 0 18 -5 36 -11
40 -17 10 -148 13 -184 3 -18 -5 -36 -19 -42 -32 -5 -12 -131 -367 -279 -789
-148 -421 -270 -765 -271 -764 -1 1 -126 348 -277 770 -152 423 -283 780 -291
793 -17 25 -15 25 -128 27 -50 2 -84 -2 -96 -10z"/>
</g>
</svg>
